{"title":"How to Stop Being a Loser 2011 DVDrp English Klam","uid":8595030,"size":1607298650,"categoryP":"video","categoryS":"movies","magnet":"?xt=urn:btih:ce4c61b3bfe00926b6142f3f200c82b831b7530b&amp;dn=How+to+Stop+Being+a+Loser+2011+DVDrp+English+Klam&amp;tr=udp%3A%2F%2Ftracker.openbittorrent.com%3A80&amp;tr=udp%3A%2F%2Fopen.demonii.com%3A1337&amp;tr=udp%3A%2F%2Ftracker.coppersurfer.tk%3A6969&amp;tr=udp%3A%2F%2Fexodus.desync.com%3A6969","seeders":0,"leechers":1,"uploader":"Klambake","files":-1,"time":1371739161,"description":"With: Simon Phillips, Craig Conway and Richard E. Grant\n\nJames (Simon Philips) is een nietsnut als het om de vrouwtjes gaat. Daar lijkt verandering in te komen als hij kennis maakt met de zelfverklaarde vrouwenversierder en rokkenjager Ampersand (Craig Conway). Als James de duistere kant van het verleiden begint te ontdekken vraagt hij zich af of Ampersand wel de persoon is die hij beweert te zijn. Tijd voor James om zich af te vragen wat hij nou eigenlijk wil met zijn leven!\n\nJames is useless with women, but his luck changes under the tutelage of pick-up artist, Ampersand. As James learns the art of seduction he begins to wonder about Ampersand's intentions and questions what would truly make him happy in life. \n &lt;a href=&quot;\nhttp://www.imdb.com/title/tt1727506&quot; rel=&quot;nofollow&quot; target=&quot;_NEW&quot;&gt;\nhttp://www.imdb.com/title/tt1727506&lt;/a&gt;\t\n\n------------------------ Dutch Friends ------------------------\n---------------------------------------------------------------\n- Bezoek ook eens mijn vrienden op: &lt;a href=&quot; http://www.Film-Test.nl&quot; rel=&quot;nofollow&quot; target=&quot;_NEW&quot;&gt; http://www.Film-Test.nl&lt;/a&gt; --\n----- voor mijn Nederlandse Sync. ondertitels ---- en meer ----\n------- http://www.Film-Test.nl ---- Over Films en meer -------\n---------------------------------------------------------------\n\nGeneral:\n\nComplete name                    : How to Stop Being a LoserHow to Stop Being a Loser.avi\nFormat                           : AVI\nFormat/Info                      : Audio Video Interleave\nFile size                        : 1.50 GiB\nDuration                         : 1h 44mn\nOverall bit rate                 : 2 045 Kbps\n\nVideo:\n\nFormat                           : MPEG-4 Visual\nFormat profile                   : Simple@L3\nFormat settings, BVOP            : No\nFormat settings, QPel            : No\nFormat settings, GMC             : No warppoints\nFormat settings, Matrix          : Default (H.263)\nCodec ID                         : XVID\nCodec ID/Hint                    : XviD\nDuration                         : 1h 44mn\nBit rate                         : 1 586 Kbps\nWidth                            : 720 pixels\nHeight                           : 304 pixels\nDisplay aspect ratio             : 2.35:1\nFrame rate                       : 25.000 fps\nColor space                      : YUV\nChroma subsampling               : 4:2:0\nBit depth                        : 8 bits\nScan type                        : Progressive\nCompression mode                 : Lossy\nBits/(Pixel*Frame)               : 0.290\nStream size                      : 1.16 GiB (78%)\nWriting library                  : XviD 1.1.2 (UTC 2006-11-01)\n\nAudio:\n\nFormat                           : AC-3\nFormat/Info                      : Audio Coding 3\nMode extension                   : CM (complete main)\nCodec ID                         : 2000\nDuration                         : 1h 44mn\nBit rate mode                    : Constant\nBit rate                         : 448 Kbps\nChannel(s)                       : 6 channels\nChannel positions                : Front: L C R, Side: L R, LFE\nSampling rate                    : 48.0 KHz\nBit depth                        : 16 bits\nCompression mode                 : Lossy\nStream size                      : 336 MiB (22%)\nAlignment                        : Aligned on interleaves\nInterleave, duration             : 32 ms (0.80 video frame)\nInterleave, preload duration     : 64 ms","torrent":{"xt":"urn:btih:ce4c61b3bfe00926b6142f3f200c82b831b7530b","amp;dn":"How+to+Stop+Being+a+Loser+2011+DVDrp+English+Klam","amp;tr":["udp%3A%2F%2Ftracker.openbittorrent.com%3A80","udp%3A%2F%2Fopen.demonii.com%3A1337","udp%3A%2F%2Ftracker.coppersurfer.tk%3A6969","udp%3A%2F%2Fexodus.desync.com%3A6969"],"infoHash":"ce4c61b3bfe00926b6142f3f200c82b831b7530b","infoHashBuffer":{"type":"Buffer","data":[206,76,97,179,191,224,9,38,182,20,47,63,32,12,130,184,49,183,83,11]},"announce":[],"urlList":[]}}